<?xml version="1.0" encoding="UTF-8" standalone="no"?>
<!-- Created with Inkscape (http://www.inkscape.org/) -->

<svg
   width="2560"
   height="1440"
   viewBox="0 0 677.33334 381"
   version="1.1"
   id="svg5"
   sodipodi:docname="moonlit-mountain.svg"
   inkscape:version="1.2.1 (9c6d41e410, 2022-07-14, custom)"
   xmlns:inkscape="http://www.inkscape.org/namespaces/inkscape"
   xmlns:sodipodi="http://sodipodi.sourceforge.net/DTD/sodipodi-0.dtd"
   xmlns:xlink="http://www.w3.org/1999/xlink"
   xmlns="http://www.w3.org/2000/svg"
   xmlns:svg="http://www.w3.org/2000/svg">
  <sodipodi:namedview
     id="namedview7"
     pagecolor="#505050"
     bordercolor="#eeeeee"
     borderopacity="1"
     inkscape:showpageshadow="0"
     inkscape:pageopacity="0"
     inkscape:pagecheckerboard="0"
     inkscape:deskcolor="#505050"
     inkscape:document-units="mm"
     showgrid="false"
     showguides="true"
     inkscape:zoom="0.2936353"
     inkscape:cx="1377.5591"
     inkscape:cy="679.41422"
     inkscape:window-width="1259"
     inkscape:window-height="1334"
     inkscape:window-x="10"
     inkscape:window-y="50"
     inkscape:window-maximized="1"
     inkscape:current-layer="layer1" />
  <defs
     id="defs2">
    <linearGradient
       inkscape:collect="always"
       id="linearGradient9367">
      <stop
         style="stop-color:#ebdbb2;stop-opacity:0.74901962;"
         offset="0"
         id="stop9363" />
      <stop
         style="stop-color:#ebdbb2;stop-opacity:0;"
         offset="0.94705755"
         id="stop12837" />
    </linearGradient>
    <radialGradient
       inkscape:collect="always"
       xlink:href="#linearGradient9367"
       id="radialGradient14291"
       cx="611.75507"
       cy="-517.60144"
       fx="611.75507"
       fy="-517.60144"
       r="338.66666"
       gradientTransform="matrix(1.2383772,0.00549034,-0.00533036,1.2022938,-148.58744,683.55991)"
       gradientUnits="userSpaceOnUse" />
  </defs>
  <g
     inkscape:label="Layer 1"
     inkscape:groupmode="layer"
     id="layer1">
    <rect
       style="fill:#458588;fill-opacity:1;stroke:none;stroke-width:0;stroke-dasharray:none"
       id="rect19604"
       width="677.33331"
       height="193.60278"
       x="0"
       y="0" />
    <g
       id="g9336"
       style="stroke:none;stroke-width:0.997001;stroke-dasharray:none"
       transform="translate(0,2.1166667)">
      <g
         id="g5593"
         transform="translate(-161.10808,35.64139)"
         style="stroke:none;stroke-width:0.997001;stroke-dasharray:none">
        <g
           id="g12833"
           style="stroke:none;stroke-width:0.997001;stroke-dasharray:none">
          <path
             style="fill:#928374;fill-opacity:1;stroke:none;stroke-width:0.997001;stroke-linecap:butt;stroke-linejoin:miter;stroke-dasharray:none;stroke-opacity:1"
             d="m 161.10808,157.96139 h 119.20988 c 0,0 -48.35531,-145.737316 -58.149,-145.737316 -9.79369,0 -61.06088,145.737316 -61.06088,145.737316 z"
             id="path2601"
             sodipodi:nodetypes="cczc" />
          <path
             id="path2603"
             style="fill:#ebdbb2;fill-opacity:0.74902;stroke:none;stroke-width:0.997001;stroke-linecap:butt;stroke-linejoin:miter;stroke-dasharray:none;stroke-opacity:1"
             d="m 222.51562,13.597656 c -0.59849,2.020313 -0.3372,4.192146 -0.26823,6.241908 0.47761,7.1611 1.75022,14.190344 2.99218,21.216514 3.51588,19.043228 7.87592,37.915644 12.33462,56.748322 4.71111,19.75572 9.66921,39.44836 14.79495,59.09794 8.82487,0 17.64974,0 26.47461,0 -9.40936,-27.94929 -19.06201,-55.82922 -29.33429,-83.477862 -5.38834,-14.36632 -10.96492,-28.65094 -17.14156,-42.702661 -2.31956,-5.125963 -4.69974,-10.184491 -7.78373,-14.925563 -0.60716,-0.820803 -1.22143,-1.657594 -2.02948,-2.294301 l -0.0378,0.09258 z" />
        </g>
      </g>
      <g
         id="g6325"
         transform="matrix(0.80700537,0,0,1.2213905,39.727254,0.64095)"
         style="stroke:none;stroke-width:1.00422;stroke-dasharray:none">
        <g
           id="g12825"
           style="stroke:none;stroke-width:1.00422;stroke-dasharray:none">
          <path
             style="fill:#928374;fill-opacity:1;stroke:none;stroke-width:1.00422;stroke-linecap:butt;stroke-linejoin:miter;stroke-dasharray:none;stroke-opacity:1"
             d="m 161.10808,157.96139 h 119.20988 c 0,0 -48.35531,-145.737316 -58.149,-145.737316 -9.79369,0 -61.06088,145.737316 -61.06088,145.737316 z"
             id="path6321"
             sodipodi:nodetypes="cczc" />
          <path
             id="path6323"
             style="fill:#ebdbb2;fill-opacity:0.74902;stroke:none;stroke-width:1.00422;stroke-linecap:butt;stroke-linejoin:miter;stroke-dasharray:none;stroke-opacity:1"
             d="m 222.51562,13.597656 c -0.59849,2.020313 -0.3372,4.192146 -0.26823,6.241908 0.47761,7.1611 1.75022,14.190344 2.99218,21.216514 3.51588,19.043228 7.87592,37.915644 12.33462,56.748322 4.71111,19.75572 9.66921,39.44836 14.79495,59.09794 8.82487,0 17.64974,0 26.47461,0 -9.40936,-27.94929 -19.06201,-55.82922 -29.33429,-83.477862 -5.38834,-14.36632 -10.96492,-28.65094 -17.14156,-42.702661 -2.31956,-5.125963 -4.69974,-10.184491 -7.78373,-14.925563 -0.60716,-0.820803 -1.22143,-1.657594 -2.02948,-2.294301 l -0.0378,0.09258 z" />
        </g>
      </g>
      <g
         id="g8511"
         transform="matrix(1.3660003,0,0,0.71367178,-156.60001,80.87024)"
         style="stroke:none;stroke-width:1.00977;stroke-dasharray:none">
        <g
           id="g12829"
           style="stroke:none;stroke-width:1.00977;stroke-dasharray:none">
          <path
             style="fill:#928374;fill-opacity:1;stroke:none;stroke-width:1.00977;stroke-linecap:butt;stroke-linejoin:miter;stroke-dasharray:none;stroke-opacity:1"
             d="m 161.10808,157.96139 h 119.20988 c 0,0 -48.35531,-145.737316 -58.149,-145.737316 -9.79369,0 -61.06088,145.737316 -61.06088,145.737316 z"
             id="path8507"
             sodipodi:nodetypes="cczc" />
          <path
             id="path8509"
             style="fill:#ebdbb2;fill-opacity:0.74902;stroke:none;stroke-width:1.00977;stroke-linecap:butt;stroke-linejoin:miter;stroke-dasharray:none;stroke-opacity:1"
             d="m 222.51562,13.597656 c -0.59849,2.020313 -0.3372,4.192146 -0.26823,6.241908 0.47761,7.1611 1.75022,14.190344 2.99218,21.216514 3.51588,19.043228 7.87592,37.915644 12.33462,56.748322 4.71111,19.75572 9.66921,39.44836 14.79495,59.09794 8.82487,0 17.64974,0 26.47461,0 -9.40936,-27.94929 -19.06201,-55.82922 -29.33429,-83.477862 -5.38834,-14.36632 -10.96492,-28.65094 -17.14156,-42.702661 -2.31956,-5.125963 -4.69974,-10.184491 -7.78373,-14.925563 -0.60716,-0.820803 -1.22143,-1.657594 -2.02948,-2.294301 l -0.0378,0.09258 z" />
        </g>
      </g>
    </g>
    <path
       id="path12835"
       style="fill:#a89984;stroke:none;stroke-width:0.26378952;stroke-linecap:butt;stroke-linejoin:miter;stroke-opacity:1;fill-opacity:1;stroke-dasharray:none"
       d="M 0,193.60278 V 381 H 677.33332 V 193.60278 M 0,193.60278 h 677.33333" />
    <circle
       style="fill:#ebdbb2;fill-opacity:1;stroke:none;stroke-width:0;stroke-dasharray:none"
       id="path9315"
       cx="612.11139"
       cy="64.445015"
       r="37.690815" />
    <path
       id="path375"
       style="fill:url(#radialGradient14291);stroke:none;stroke-width:0.26378952;stroke-linecap:butt;stroke-linejoin:miter;stroke-opacity:1;fill-opacity:1;stroke-dasharray:none"
       d="M 0,193.60278 V 381 H 677.33332 V 193.60278 M 0,193.60278 h 677.33333" />
    <path
       id="circle9905"
       style="fill:#282828;fill-opacity:0.25;stroke:none;stroke-width:0;stroke-dasharray:none"
       d="m 615.33147,26.894482 a 37.690815,37.690815 0 0 0 -34.56068,37.55068 37.690815,37.690815 0 0 0 34.51572,37.544998 37.690815,37.690815 0 0 0 34.51573,-37.544998 37.690815,37.690815 0 0 0 -34.47077,-37.55068 z" />
  </g>
</svg>
